<svg width="38.000000" height="38.000000" viewBox="0 0 38 38" fill="none" xmlns="http://www.w3.org/2000/svg" xmlns:xlink="http://www.w3.org/1999/xlink">
	<desc>
			Created with Pixso.
	</desc>
	<defs/>
	<rect id="AirplaneTilt" width="37.039345" height="37.039345" fill="#FFFFFF" fill-opacity="0"/>
	<path id="Vector" d="M25.44 16.2L30.07 28.93L26.6 32.4L19.68 22.28L16.18 25.46L16.18 28.93L12.71 32.4L10.66 26.35L4.61 24.3L8.08 20.83L11.55 20.83L15.03 17.36L4.61 10.41L8.08 6.94L20.81 11.57L25.4 6.72L25.3 6.8C25.62 6.48 26.01 6.22 26.43 6.05C26.85 5.87 27.3 5.78 27.76 5.78C28.21 5.78 28.67 5.87 29.09 6.04C29.51 6.22 29.89 6.47 30.22 6.8C30.54 7.12 30.79 7.5 30.97 7.92C31.14 8.35 31.23 8.8 31.23 9.25C31.23 9.71 31.14 10.16 30.97 10.58C30.79 11.01 30.54 11.39 30.21 11.71L30.31 11.63L25.44 16.2Z" stroke="#BCA4FF" stroke-opacity="1.000000" stroke-width="2.314959" stroke-linejoin="round"/>
</svg>
