<svg width="38.000000" height="38.000000" viewBox="0 0 38 38" fill="none" xmlns="http://www.w3.org/2000/svg" xmlns:xlink="http://www.w3.org/1999/xlink">
	<desc>
			Created with Pixso.
	</desc>
	<defs/>
	<rect id="Bicycle" width="37.039345" height="37.039345" fill="#FFFFFF" fill-opacity="0"/>
	<path id="Vector" d="M30.09 11.57C30.09 10.96 29.85 10.37 29.41 9.93C28.98 9.5 28.39 9.25 27.77 9.25L21.99 9.25L30.09 " stroke="#BCA4FF" stroke-opacity="1.000000" stroke-width="2.314959" stroke-linejoin="round" stroke-linecap="round"/>
	<path id="Vector" d="M30.09 28.93C26.89 28.93 24.3 26.34 24.3 23.14C24.3 19.95 26.89 17.36 30.09 17.36C33.29 17.36 35.88 19.95 35.88 23.14C35.88 26.34 33.29 28.93 30.09 28.93Z" stroke="#BCA4FF" stroke-opacity="1.000000" stroke-width="2.314959" stroke-linejoin="round"/>
	<path id="Vector" d="M6.94 28.93C3.74 28.93 1.15 26.34 1.15 23.14C1.15 19.95 3.74 17.36 6.94 17.36C10.14 17.36 12.73 19.95 12.73 23.14C12.73 26.34 10.14 28.93 6.94 28.93Z" stroke="#BCA4FF" stroke-opacity="1.000000" stroke-width="2.314959" stroke-linejoin="round"/>
	<path id="Vector" d="M6.94 9.25L10.99 9.25L19.09 " stroke="#BCA4FF" stroke-opacity="1.000000" stroke-width="2.314959" stroke-linejoin="round" stroke-linecap="round"/>
	<path id="Vector" d="M24.6 13.88L13.69 13.88L6.94 " stroke="#BCA4FF" stroke-opacity="1.000000" stroke-width="2.314959" stroke-linejoin="round" stroke-linecap="round"/>
</svg>
