<svg width="38.000000" height="38.000000" viewBox="0 0 38 38" fill="none" xmlns="http://www.w3.org/2000/svg" xmlns:xlink="http://www.w3.org/1999/xlink">
	<desc>
			Created with Pixso.
	</desc>
	<defs/>
	<rect id="GlobeHemisphereEast" width="37.039345" height="37.039345" fill="#FFFFFF" fill-opacity="0"/>
	<path id="Vector" d="M18.51 32.4C10.84 32.4 4.62 26.19 4.62 18.51C4.62 10.84 10.84 4.62 18.51 4.62C26.19 4.62 32.4 10.84 32.4 18.51C32.4 26.19 26.19 32.4 18.51 32.4Z" stroke="#BCA4FF" stroke-opacity="1.000000" stroke-width="2.314959" stroke-linejoin="round"/>
	<path id="Vector" d="M7.17 26.53L8.86 25.51C9.03 25.41 9.17 25.26 9.27 25.09C9.36 24.92 9.42 24.72 9.42 24.52L9.45 19.3C9.45 19.08 9.51 18.87 9.63 18.68L12.5 14.18C12.58 14.05 12.7 13.93 12.83 13.85C12.96 13.76 13.1 13.7 13.26 13.67C13.41 13.64 13.57 13.64 13.73 13.68C13.88 13.71 14.03 13.77 14.15 13.87L17 15.93C17.24 16.1 17.54 16.18 17.83 16.14L22.39 15.52C22.67 15.48 22.92 15.34 23.11 15.13L26.31 11.43C26.51 11.2 26.61 10.91 26.59 10.61L26.43 " stroke="#BCA4FF" stroke-opacity="1.000000" stroke-width="2.314959" stroke-linejoin="round" stroke-linecap="round"/>
	<path id="Vector" d="M27.06 29.46L25.51 27.91C25.36 27.76 25.18 27.66 24.98 27.61L21.88 26.79C21.6 26.72 21.36 26.55 21.21 26.31C21.05 26.07 20.98 25.79 21.03 25.5L21.37 23.16C21.4 22.96 21.48 22.78 21.6 22.62C21.73 22.46 21.89 22.34 22.07 22.26L26.48 20.43C26.68 20.34 26.9 20.32 27.12 20.36C27.34 20.4 27.54 20.5 27.7 20.64L31.3 " stroke="#BCA4FF" stroke-opacity="1.000000" stroke-width="2.314959" stroke-linejoin="round" stroke-linecap="round"/>
</svg>
