<svg width="164.763672" height="25.714111" viewBox="0 0 164.764 25.7141" fill="none" xmlns="http://www.w3.org/2000/svg" xmlns:xlink="http://www.w3.org/1999/xlink">
	<desc>
			Created with Pixso.
	</desc>
	<defs/>
	<path id="Travelulu" d="M108.247 25.4371L108.247 -3.05176e-05L102.372 -3.05176e-05L102.372 25.4371L108.247 25.4371ZM141.556 25.4371L141.556 -3.05176e-05L135.681 -3.05176e-05L135.681 25.4371L141.556 25.4371ZM18.6647 6.01727L18.6647 1.30917L0.000183105 1.30917L0.000183105 6.01727L6.39514 6.01727L6.39514 25.4371L12.2782 25.4371L12.2782 6.01727L18.6647 6.01727ZM36.2872 10.6247Q35.171 12.857 35.171 15.8111Q35.171 18.7652 36.2872 21.0228Q37.2101 22.8826 38.6839 24.0423Q38.9925 24.2851 39.3252 24.4972Q40.1513 25.018 41.0513 25.3159Q42.254 25.7141 43.5885 25.7141Q45.6194 25.7141 47.1468 24.8916Q48.4254 24.1962 49.2394 23.142Q49.3978 22.9368 49.5387 22.718L49.5387 25.4371L55.4133 25.4371L55.4133 6.25226L49.5387 6.25226L49.5387 8.97137Q49.4205 8.77849 49.2877 8.59635Q48.4956 7.51046 47.1804 6.80615Q45.653 5.9837 43.6221 5.9837Q42.1231 5.9837 40.7993 6.46511Q40.0329 6.74379 39.3252 7.18381Q38.9929 7.39131 38.6847 7.62992Q37.2104 8.77134 36.2872 10.6247ZM99.1733 17.2546Q99.274 16.365 99.274 15.5342Q99.274 12.6472 98.0571 10.482Q97.4101 9.33088 96.4952 8.46204Q95.6891 7.6966 94.675 7.15024Q94.655 7.13947 94.6349 7.12879Q92.484 5.9837 89.7235 5.9837Q86.8715 5.9837 84.6735 7.18263L84.6713 7.18381Q83.7058 7.71077 82.9281 8.43837Q81.9345 9.36782 81.2472 10.6247Q80.0304 12.857 80.0304 15.8447Q80.0304 18.8408 81.264 21.0731Q81.9581 22.3206 82.951 23.2484Q83.7348 23.9808 84.7049 24.514Q84.7949 24.5631 84.8859 24.6102Q87.0191 25.7141 89.7235 25.7141Q92.0566 25.7141 93.9448 24.8581Q95.4597 24.1677 96.5624 23.065Q96.8403 22.7871 97.092 22.483Q97.755 21.6874 98.2015 20.7846Q98.6028 19.9734 98.8292 19.0757L92.5769 19.0757Q92.1983 19.8881 91.5637 20.3446Q90.7495 20.9305 89.5137 20.9305Q88.5953 20.9305 87.8554 20.5671Q87.4053 20.346 87.0212 19.9905Q86.9533 19.9271 86.8894 19.86Q85.9967 18.9227 85.8714 17.2546L99.1733 17.2546ZM29.321 7.47218Q28.2684 8.2748 27.4996 9.44974L27.4996 6.25226L21.625 6.25226L21.625 25.4371L27.4996 25.4371L27.4996 16.5329Q27.4996 14.1662 28.599 13.2179Q29.7068 12.2696 31.9056 12.2696L33.517 12.2696L33.517 6.05084Q32.2563 6.05084 31.1453 6.45855Q30.5922 6.66154 30.0761 6.96561Q29.6818 7.19701 29.321 7.47218ZM72.4681 6.25226L68.3055 19.9402L64.1429 6.25226L57.857 6.25226L64.6632 25.4371L71.9142 25.4371L78.7203 6.25226L72.4681 6.25226ZM131.454 25.4371L131.454 6.25226L125.571 6.25226L125.571 16.6755Q125.571 18.503 124.668 19.5564Q124.621 19.6108 124.572 19.6632Q124.327 19.9269 124.038 20.1254Q123.156 20.729 121.862 20.729Q120.645 20.729 119.786 20.1746Q119.454 19.9603 119.176 19.6632Q119.137 19.6207 119.099 19.5769Q118.186 18.5208 118.186 16.6755L118.186 6.25226L112.336 6.25226L112.336 17.4644Q112.336 19.9737 113.268 21.8284Q113.919 23.1256 114.936 23.9959Q115.373 24.3699 115.878 24.665Q116.016 24.7456 116.158 24.8195Q117.745 25.6469 119.763 25.6469Q121.364 25.6469 122.722 25.0717Q122.937 24.9805 123.146 24.8748Q124.583 24.1444 125.454 22.9877Q125.514 22.9084 125.571 22.8271L125.571 25.4371L131.454 25.4371ZM164.763 25.4371L164.763 6.25226L158.88 6.25226L158.88 16.6755Q158.88 18.503 157.977 19.5564Q157.931 19.6108 157.882 19.6632Q157.637 19.9269 157.347 20.1254Q156.466 20.729 155.171 20.729Q153.954 20.729 153.096 20.1746Q152.764 19.9603 152.485 19.6632Q152.446 19.6207 152.408 19.5769Q151.495 18.5208 151.495 16.6755L151.495 6.25226L145.646 6.25226L145.646 17.4644Q145.646 19.9737 146.577 21.8284Q147.229 23.1256 148.246 23.9959Q148.683 24.3699 149.187 24.665Q149.326 24.7456 149.467 24.8195Q151.054 25.6469 153.073 25.6469Q154.674 25.6469 156.031 25.0717Q156.246 24.9805 156.455 24.8748Q157.892 24.1444 158.764 22.9877Q158.823 22.9084 158.88 22.8271L158.88 25.4371L164.763 25.4371ZM92.8337 12.2964Q93.2651 13.0135 93.2651 13.99L85.905 13.99Q86.115 12.6284 86.8938 11.8043Q87.0175 11.6735 87.1554 11.5562Q87.4386 11.3152 87.7584 11.1413Q88.5852 10.6918 89.6564 10.6918Q90.7989 10.6918 91.6612 11.1834Q91.9643 11.3562 92.2328 11.5898Q92.5978 11.9043 92.8337 12.2964ZM48.6227 12.739Q49.5387 13.9437 49.5387 15.8447Q49.5387 17.7411 48.6272 18.9508Q48.4819 19.1437 48.3134 19.3191Q47.7016 19.9562 46.9542 20.273Q46.2148 20.5864 45.3425 20.5864Q44.4989 20.5864 43.7777 20.2894Q42.9992 19.9688 42.3632 19.3023Q42.1997 19.1287 42.0581 18.9386Q41.1463 17.7144 41.1463 15.8111Q41.1463 13.8848 42.0803 12.6864Q42.2124 12.5168 42.3632 12.3619Q42.979 11.7292 43.7283 11.4145Q44.47 11.103 45.3425 11.103Q46.205 11.103 46.9377 11.4115Q47.6949 11.7303 48.3134 12.3787Q48.4793 12.5503 48.6227 12.739Z" fill="#5F2EEA" fill-opacity="1.000000" fill-rule="evenodd"/>
</svg>
